<?xml version="1.0" encoding="utf-8"?>
<!-- Generator: Adobe Illustrator 18.1.1, SVG Export Plug-In . SVG Version: 6.00 Build 0)  -->
<svg version="1.1" id="Layer_1" xmlns="http://www.w3.org/2000/svg" xmlns:xlink="http://www.w3.org/1999/xlink" x="0px" y="0px"
	 viewBox="250 211.2 720.2 139.8" enable-background="new 250 211.2 720.2 139.8" xml:space="preserve">
<g>
	<path fill="#FFFFFF" d="M487.5,216.6c0.3,0-54-4.9-54-4.9c-1.1-0.1-2.2,0.1-3.1,0.8l-36.6,25.1l-36.6-25.2l-0.7-0.5
		c-0.8-0.5-1.7-0.7-2.6-0.6l-53.7,4.5c-1.2,0.1-2.3,0.7-3.1,1.7l-0.4,0.5c-0.5,0.7-0.8,1.5-0.8,2.3l-0.1,115c0,1.1,0.6,3.6,1.4,4.3
		c0.8,0.8,2,2.6,3.1,2.6h0l69.9-1.5l23.7,9.7c0.6,0.3,0.9,0.2,1.5,0.2c0.6,0,1.5-0.5,2-0.8l23.4-10.6l65.5-0.1
		c0.7,0.1-0.2,0.1,0.5-0.1c1.8-0.5,1.4-2.1,1.4-3.9V220.6 M304.3,223.6l47.4-4l10.5,111.8l-58,0.1L304.3,223.6z M479.4,331.3
		l-54.9,0.1l8.5-111.7l46.4,3.9V331.3z"/>
	<g>
		<polygon fill="#FFFFFF" points="540.4,254.9 540.4,228 534.9,228 534.9,255 540.2,255 540.2,260.4 551,260.4 551,254.9 		"/>
		<path fill="#FFFFFF" d="M566.9,254.9v-16.2h-10.8v5.5h5.3v10.7h-5.3v5.4h16.1v-5.4H566.9L566.9,254.9z M566.9,228h-5.5v5.4h5.5
			V228z"/>
		<path fill="#FFFFFF" d="M599.1,255h-15.7v-10.7h15.7C599.1,244.3,599.1,255,599.1,255z M599.3,244.2v-5.4h-15.9V228h-5.5v32.3
			h21.4V255h5.3v-10.8L599.3,244.2L599.3,244.2z"/>
		<polygon fill="#FFFFFF" points="616.3,233.4 616.3,238.8 611,238.8 611,260.4 616.5,260.4 616.5,238.9 632.4,238.9 632.4,233.4 		
			"/>
		<path fill="#FFFFFF" d="M658.6,244.2h-15.7v-5.3h15.7V244.2z M658.7,249.6v-5.4h5.3v-5.5h-5.3v-5.3h-16.1v5.3h-5.3V255h5.3v5.4
			H664v-5.4h-21.2v-5.3H658.7L658.7,249.6z"/>
		<polygon fill="#FFFFFF" points="674.8,233.4 674.8,238.8 669.5,238.8 669.5,260.4 674.9,260.4 674.9,238.9 690.9,238.9 
			690.9,233.4 		"/>
		<path fill="#FFFFFF" d="M707.7,254.9v-16.2h-10.8v5.5h5.3v10.7h-5.3v5.4H713v-5.4H707.7L707.7,254.9z M707.7,228h-5.5v5.4h5.5V228
			z"/>
		<path fill="#FFFFFF" d="M739.6,244.2h-15.7v-5.3h15.7V244.2z M739.7,249.6v-5.4h5.3v-5.5h-5.3v-5.3h-16.1v5.3h-5.3V255h5.3v5.4
			H745v-5.4h-21.2v-5.3H739.7L739.7,249.6z"/>
		<rect x="750.3" y="249.6" fill="#FFFFFF" width="10.8" height="10.8"/>
		<path fill="#FFFFFF" d="M917.6,221.8v7h6.9v17.7h-6.9v7h-20.7v14h-10.7v-45.6L917.6,221.8L917.6,221.8z M896.9,242.8h16.9v-10.4
			h-16.9V242.8z"/>
		<path fill="#FFFFFF" d="M833.1,221.8v7h6.9v24.7h-6.9v7h-24.5v-7h-6.9v-24.7h6.9v-7L833.1,221.8L833.1,221.8z M812.4,249.8h16.9
			v-17.4h-16.9V249.8z"/>
		<polygon fill="#FFFFFF" points="798.2,232.4 777.5,232.4 777.5,249.8 798.2,249.8 798.2,260.4 773.7,260.4 773.7,253.4 
			766.8,253.4 766.8,228.8 773.7,228.8 773.7,221.8 798.2,221.8 		"/>
		<path fill="#FFFFFF" d="M875,221.8v7h6.9v24.7H875v7h-24.5v-7h-6.9v-24.7h6.9v-7L875,221.8L875,221.8z M854.2,249.8h16.9v-17.4
			h-16.9V249.8L854.2,249.8z"/>
	</g>
	<g>
		<path fill="#FFFFFF" d="M544.4,292.4c5,0,8.8,0,11.7,1.8c5.1,3.1,5.1,9.6,5.1,11.3c0,7.4-2.8,12.6-9,12.6c7.6,0,9.9,6.4,9.9,13
			c0,6.3-0.6,10.2-3.6,13.4c-3.6,3.7-7.5,3.7-14.6,3.7h-9.6v-55.8L544.4,292.4L544.4,292.4z M541.2,315.3h4.7c4,0,8.5,0,8.5-8.5
			c0-8.2-4-8.2-9.2-8.2h-4V315.3L541.2,315.3z M541.2,321.4v20.9h4c5.5,0,10,0,10-9.2c0-11.2-3.2-11.7-10.2-11.7H541.2L541.2,321.4z
			"/>
		<polygon fill="#FFFFFF" points="666.8,348.2 659.1,348.2 649.2,319.7 644.7,326.4 644.7,348.2 637.9,348.2 637.9,292.4 
			644.7,292.4 644.7,316.5 659.1,292.4 666.8,292.4 653.7,313.4 		"/>
		<path fill="#FFFFFF" d="M702,348.2h-7.4l-9.5-24.4h-5.8v24.4h-6.9v-55.8h12.2c7.4,0,14.8,1.2,14.8,15.2c0,4.2-0.6,7.7-1.3,9.7
			c-1.6,4.6-4.7,5.3-6.2,5.7L702,348.2z M679.4,318.3c7.8,0,8.9,0,10.4-1c2.7-1.8,2.7-6.1,2.7-8.9c0-3.4-0.1-7-2.8-8.6
			c-1.7-1-3.2-1-10.4-1V318.3L679.4,318.3z"/>
		<polygon fill="#FFFFFF" points="733.9,348.2 708.7,348.2 708.7,292.4 733.2,292.4 733.2,298.7 715.7,298.7 715.7,315.3 
			731.1,315.3 731.1,321.6 715.7,321.6 715.7,342 733.9,342 		"/>
		<path fill="#FFFFFF" d="M748.6,348.2h-6.9v-55.9h11.4c6.2,0,10,0.4,12.9,4.4c2.5,3.5,2.5,6.8,2.5,12.6c0,7.6-1.3,13-6.6,15
			c-2.7,1-4.3,1-13.3,1L748.6,348.2L748.6,348.2z M748.6,319.2h4.7c3.1,0,4.8-0.2,6.3-1.3c2.1-1.6,2.1-3.8,2.1-8.1
			c0-6-0.2-8.5-2.5-10c-1.7-1.2-3.3-1.2-10.5-1.2V319.2L748.6,319.2z"/>
		<path fill="#FFFFFF" d="M803.2,292.4v37.6c0,6.9-0.1,9.6-1.3,12.5c-2.5,5.9-9.2,6.5-12.2,6.5c-6,0-10.4-1.8-12.3-6.1
			c-1.1-2.5-1.3-4-1.3-12.4v-38.1h7v40.7c0,4.8,0,9.9,6.7,9.9c6,0,6.2-4.2,6.2-6.8c0.1-2.2,0.1-2.7,0.1-6.8v-37L803.2,292.4
			L803.2,292.4z"/>
		<path fill="#FFFFFF" d="M824.4,292.4c5,0,8.8,0,11.7,1.8c5.1,3.1,5.1,9.6,5.1,11.3c0,7.4-2.8,12.6-9,12.6c7.6,0,9.9,6.4,9.9,13
			c0,6.3-0.6,10.2-3.6,13.4c-3.6,3.7-7.5,3.7-14.6,3.7h-9.6v-55.8L824.4,292.4L824.4,292.4z M821.1,315.3h4.7c4,0,8.5,0,8.5-8.5
			c0-8.2-4-8.2-9.2-8.2h-4L821.1,315.3L821.1,315.3z M821.1,321.4v20.9h4c5.5,0,10,0,10-9.2c0-11.2-3.2-11.7-10.2-11.7H821.1
			L821.1,321.4z"/>
		<polygon fill="#FFFFFF" points="873.8,348.2 850.4,348.2 850.4,292.4 857.4,292.4 857.4,342 873.8,342 		"/>
		<rect x="880.1" y="292.4" fill="#FFFFFF" width="6.9" height="55.8"/>
		<path fill="#FFFFFF" d="M924.3,328.5c0,7.5-0.1,9.5-0.6,11.6c-0.7,3.2-2.5,8.9-12.6,8.9c-8.5,0-12-5.1-12.9-10.2
			c-0.2-1.6-0.6-4-0.6-17.9c0-14.7,0.2-16.4,0.6-18.9c0.5-2.5,1.9-10.5,13.4-10.5c4.6,0,10.3,2,11.7,8.1c0.6,2.7,0.6,6,0.6,10.4
			h-6.5v-4.2c0-3.8-0.1-8.4-5.8-8.4c-5.9,0-6.4,4.7-6.6,6.9c-0.5,4-0.5,12.5-0.5,16.8c0,3.4,0.2,14.7,0.5,16.9
			c0.2,1,0.9,5.2,6.5,5.2c5,0,5.7-4.3,5.9-5.3c0.3-1.4,0.3-2.7,0.3-9.3L924.3,328.5L924.3,328.5L924.3,328.5z"/>
		<path fill="#FFFFFF" d="M596.5,334.3c-0.4,6.8-2.2,14.1-14,14.1c-2.1,0-5-0.2-7.7-1.5c-4-2.1-5.1-5.8-5.5-8.1
			c-0.7-3.7-0.6-11.6-0.6-16.4c0-3.5,0.2-14.8,0.4-17.8c0.2-2.8,1.4-12.1,14.3-12.1c11.9,0,12.9,8.5,13.2,11.4
			c0.5,4.6,0.3,14.4,0.3,15.8C597,324,596.8,330.3,596.5,334.3 M576.1,330.8c0.2,5.2-0.8,12.1,6.7,12.1c6.1,0,6.3-5.1,6.6-8.6
			c0.3-4.5,0.5-10.1,0.4-14.5c-0.1-4.2-0.1-8.5-0.2-12.8c-0.1-3.4-0.2-8.8-6.6-8.8c-6.5,0-6.7,5.9-6.9,8.7
			c-0.2,2.7-0.2,3.5-0.2,16.6C576,327.3,576,327.3,576.1,330.8"/>
		<path fill="#FFFFFF" d="M630.8,334.2c-0.4,6.8-2.2,14.1-14,14.1c-2.1,0-5-0.2-7.7-1.5c-4-2.1-5.1-5.8-5.5-8.1
			c-0.6-3.7-0.6-11.6-0.6-16.5c0-3.5,0.2-14.8,0.4-17.8c0.2-2.8,1.4-12.1,14.3-12.1c11.9,0,12.9,8.5,13.2,11.4
			c0.5,4.6,0.3,14.4,0.3,15.8C631.3,323.9,631.1,330.1,630.8,334.2 M610.4,330.7c0.2,5.2-0.8,12.1,6.7,12.1c6.1,0,6.3-5.1,6.6-8.6
			c0.3-4.5,0.5-10.1,0.4-14.4c-0.1-4.2-0.1-8.5-0.2-12.8c-0.1-3.4-0.2-8.8-6.6-8.8c-6.5,0-6.7,5.9-6.9,8.7
			c-0.2,2.7-0.2,3.5-0.2,16.6C610.3,327.1,610.3,327.2,610.4,330.7"/>
	</g>
</g>
</svg>
