<?xml version="1.0" encoding="UTF-8" standalone="no"?>
<svg width="630px" height="140px" viewBox="0 0 630 140" version="1.1" xmlns="http://www.w3.org/2000/svg" xmlns:xlink="http://www.w3.org/1999/xlink" xmlns:sketch="http://www.bohemiancoding.com/sketch/ns">
    <!-- Generator: Sketch 3.4.2 (15855) - http://www.bohemiancoding.com/sketch -->
    <title>Slice 1</title>
    <desc>Created with Sketch.</desc>
    <defs></defs>
    <g id="Page-1" stroke="none" stroke-width="1" fill="none" fill-rule="evenodd" sketch:type="MSPage">
        <g id="__logo-negative" sketch:type="MSLayerGroup" fill="#FFFFFF">
            <g id="Group" sketch:type="MSShapeGroup">
                <g>
                    <path d="M186.4,5.8 C186.7,5.8 134.1,0.9 134.1,0.9 C133,0.8 132,1 131.1,1.7 L95.7,26.8 L60.3,1.6 L59.6,1.1 C58.8,0.6 58,0.4 57.1,0.5 L5.1,5 C3.9,5.1 2.9,5.7 2.1,6.7 L1.7,7.2 C1.2,7.9 0.9,8.7 0.9,9.5 L0.8,124.5 C0.8,125.6 1.4,128.1 2.2,128.8 C3,129.6 4.1,131.4 5.2,131.4 L5.2,131.4 L72.9,129.9 L95.8,139.6 C96.4,139.9 96.7,139.8 97.3,139.8 C97.9,139.8 98.8,139.3 99.2,139 L121.9,128.4 L185.3,128.3 C186,128.4 185.1,128.4 185.8,128.2 C187.5,127.7 187.2,126.1 187.2,124.3 L187.2,9.8 L186.4,5.8 Z M9,12.8 L54.9,8.8 L65.1,120.6 L9,120.7 L9,12.8 L9,12.8 Z M178.5,120.5 L125.4,120.6 L133.6,8.9 L178.5,12.8 L178.5,120.5 L178.5,120.5 Z" id="Shape"></path>
                    <g transform="translate(227.000000, 2.000000)">
                        <path d="M6.6,32.6 L6.6,0.8 L0.4,0.8 L0.4,32.6 L6.4,32.6 L6.4,39 L18.7,39 L18.7,32.6 L6.6,32.6 Z" id="Shape"></path>
                        <path d="M37,32.6 L37,13.5 L24.7,13.5 L24.7,20 L30.8,20 L30.8,32.6 L24.7,32.6 L24.7,39 L43,39 L43,32.6 L37,32.6 L37,32.6 Z M37,0.8 L30.8,0.8 L30.8,7.2 L37,7.2 L37,0.8 L37,0.8 Z" id="Shape"></path>
                        <path d="M73.7,32.6 L55.7,32.6 L55.7,20 L73.7,20 L73.7,32.6 L73.7,32.6 Z M73.9,19.9 L73.9,13.5 L55.7,13.5 L55.7,0.8 L49.5,0.8 L49.5,39 L73.9,39 L73.9,32.6 L80,32.6 L80,19.8 L73.9,19.8 L73.9,19.9 Z" id="Shape"></path>
                        <path d="M93.3,7.2 L93.3,13.5 L87.3,13.5 L87.3,39 L93.5,39 L93.5,13.6 L111.7,13.6 L111.7,7.2 L93.3,7.2 Z" id="Shape"></path>
                        <path d="M141.6,19.9 L123.6,19.9 L123.6,13.6 L141.6,13.6 L141.6,19.9 L141.6,19.9 Z M141.8,26.3 L141.8,20 L147.9,20 L147.9,13.5 L141.8,13.5 L141.8,7.2 L123.4,7.2 L123.4,13.5 L117.3,13.5 L117.3,32.6 L123.4,32.6 L123.4,39 L147.8,39 L147.8,32.6 L123.6,32.6 L123.6,26.3 L141.8,26.3 L141.8,26.3 Z" id="Shape"></path>
                        <path d="M160.1,7.2 L160.1,13.5 L154,13.5 L154,39 L160.3,39 L160.3,13.6 L178.4,13.6 L178.4,7.2 L160.1,7.2 Z" id="Shape"></path>
                        <path d="M197.7,32.6 L197.7,13.5 L185.4,13.5 L185.4,20 L191.5,20 L191.5,32.6 L185.4,32.6 L185.4,39 L203.8,39 L203.8,32.6 L197.7,32.6 L197.7,32.6 Z M197.7,0.8 L191.5,0.8 L191.5,7.2 L197.7,7.2 L197.7,0.8 L197.7,0.8 Z" id="Shape"></path>
                        <path d="M234.1,19.9 L216.1,19.9 L216.1,13.6 L234.1,13.6 L234.1,19.9 L234.1,19.9 Z M234.3,26.3 L234.3,20 L240.4,20 L240.4,13.5 L234.3,13.5 L234.3,7.2 L215.9,7.2 L215.9,13.5 L209.8,13.5 L209.8,32.6 L215.9,32.6 L215.9,39 L240.3,39 L240.3,32.6 L216.1,32.6 L216.1,26.3 L234.3,26.3 L234.3,26.3 Z" id="Shape"></path>
                        <rect id="Rectangle-path" x="246.3" y="26.2" width="12.3" height="12.8"></rect>
                        <path d="M396.4,5.2 L396.4,11.5 L402.5,11.5 L402.5,27.5 L396.4,27.5 L396.4,33.8 L378.2,33.8 L378.2,46.5 L368.8,46.5 L368.8,5.1 L396.4,5.1 L396.4,5.2 Z M378.3,24.2 L393.2,24.2 L393.2,14.8 L378.3,14.8 L378.3,24.2 L378.3,24.2 Z" id="Shape"></path>
                        <path d="M322.4,5.2 L322.4,11.5 L328.5,11.5 L328.5,33.8 L322.4,33.8 L322.4,40.2 L300.9,40.2 L300.9,33.8 L294.8,33.8 L294.8,11.5 L300.9,11.5 L300.9,5.2 L322.4,5.2 L322.4,5.2 Z M304.2,30.5 L319,30.5 L319,14.8 L304.1,14.8 L304.1,30.5 L304.2,30.5 Z" id="Shape"></path>
                        <path d="M291.7,14.8 L273.5,14.8 L273.5,30.5 L291.7,30.5 L291.7,40.2 L270.2,40.2 L270.2,33.8 L264.1,33.8 L264.1,11.5 L270.2,11.5 L270.2,5.2 L291.7,5.2 L291.7,14.8 Z" id="Shape"></path>
                        <path d="M359.1,5.2 L359.1,11.5 L365.2,11.5 L365.2,33.8 L359.1,33.8 L359.1,40.2 L337.6,40.2 L337.6,33.8 L331.5,33.8 L331.5,11.5 L337.6,11.5 L337.6,5.2 L359.1,5.2 L359.1,5.2 Z M340.9,30.5 L355.8,30.5 L355.8,14.8 L340.9,14.8 L340.9,30.5 L340.9,30.5 Z" id="Shape"></path>
                    </g>
                    <g transform="translate(227.000000, 67.000000)">
                        <path d="M10.8,1.3 C16,1.3 19.9,1.3 22.9,3.2 C28.2,6.5 28.2,13.4 28.2,15.2 C28.2,23.1 25.3,28.6 18.9,28.6 C26.7,28.6 29.1,35.4 29.1,42.4 C29.1,49.1 28.5,53.3 25.4,56.7 C21.7,60.6 17.7,60.6 10.4,60.6 L0.5,60.6 L0.5,1.2 L10.8,1.2 L10.8,1.3 L10.8,1.3 Z M7.5,25.7 L12.3,25.7 C16.4,25.7 21.1,25.7 21.1,16.7 C21.1,8 17,8 11.6,8 L7.5,8 L7.5,25.7 L7.5,25.7 L7.5,25.7 Z M7.5,32.2 L7.5,54.4 L11.6,54.4 C17.3,54.4 21.9,54.4 21.9,44.6 C21.9,32.7 18.6,32.1 11.4,32.1 L7.5,32.2 L7.5,32.2 L7.5,32.2 Z" id="Shape"></path>
                        <path d="M136.9,60.7 L128.9,60.7 L118.7,30.4 L114.1,37.5 L114.1,60.7 L107.1,60.7 L107.1,1.3 L114.1,1.3 L114.1,27 L128.9,1.3 L136.9,1.3 L123.4,23.7 L136.9,60.7 Z" id="Shape"></path>
                        <path d="M173.1,60.7 L165.5,60.7 L155.7,34.7 L149.7,34.7 L149.7,60.7 L142.6,60.7 L142.6,1.3 L155.2,1.3 C162.8,1.3 170.4,2.6 170.4,17.5 C170.4,22 169.8,25.7 169.1,27.8 C167.5,32.7 164.3,33.4 162.7,33.9 L173.1,60.7 L173.1,60.7 Z M149.9,28.9 C157.9,28.9 159.1,28.9 160.6,27.8 C163.4,25.9 163.4,21.3 163.4,18.3 C163.4,14.7 163.3,10.9 160.5,9.1 C158.7,8 157.2,8 149.8,8 L149.8,28.8 L149.9,28.8 L149.9,28.9 Z" id="Shape"></path>
                        <path d="M206,60.7 L180,60.7 L180,1.3 L205.3,1.3 L205.3,8 L187.3,8 L187.3,25.7 L203.1,25.7 L203.1,32.4 L187.3,32.4 L187.3,54.1 L206,54.1 L206,60.7 Z" id="Shape"></path>
                        <path d="M221.1,60.7 L214,60.7 L214,1.2 L225.7,1.2 C232.1,1.2 236,1.6 239,5.9 C241.6,9.6 241.6,13.1 241.6,19.3 C241.6,27.4 240.3,33.1 234.8,35.3 C232,36.4 230.4,36.4 221.1,36.4 L221.1,60.7 L221.1,60.7 L221.1,60.7 Z M221.1,29.8 L225.9,29.8 C229.1,29.8 230.8,29.6 232.4,28.4 C234.6,26.7 234.6,24.4 234.6,19.8 C234.6,13.4 234.4,10.8 232,9.2 C230.2,7.9 228.6,7.9 221.2,7.9 L221.2,29.8 L221.1,29.8 L221.1,29.8 Z" id="Shape"></path>
                        <path d="M277.4,1.3 L277.4,41.3 C277.4,48.6 277.3,51.5 276.1,54.6 C273.5,60.9 266.6,61.5 263.5,61.5 C257.3,61.5 252.8,59.6 250.8,55 C249.7,52.3 249.5,50.7 249.5,41.8 L249.5,1.3 L256.7,1.3 L256.7,44.6 C256.7,49.7 256.7,55.1 263.6,55.1 C269.8,55.1 270,50.6 270,47.9 C270.1,45.6 270.1,45 270.1,40.7 L270.1,1.3 L277.4,1.3 L277.4,1.3 L277.4,1.3 Z" id="Shape"></path>
                        <path d="M299.2,1.3 C304.4,1.3 308.3,1.3 311.3,3.2 C316.6,6.5 316.6,13.4 316.6,15.2 C316.6,23.1 313.7,28.6 307.3,28.6 C315.1,28.6 317.5,35.4 317.5,42.4 C317.5,49.1 316.9,53.3 313.8,56.7 C310.1,60.6 306.1,60.6 298.8,60.6 L288.9,60.6 L288.9,1.2 L299.2,1.2 L299.2,1.3 L299.2,1.3 Z M295.8,25.7 L300.6,25.7 C304.7,25.7 309.4,25.7 309.4,16.7 C309.4,8 305.3,8 299.9,8 L295.8,8 L295.8,25.7 L295.8,25.7 L295.8,25.7 Z M295.8,32.2 L295.8,54.4 L299.9,54.4 C305.6,54.4 310.2,54.4 310.2,44.6 C310.2,32.7 306.9,32.1 299.7,32.1 L295.8,32.2 L295.8,32.2 L295.8,32.2 Z" id="Shape"></path>
                        <path d="M350.1,60.7 L326,60.7 L326,1.3 L333.2,1.3 L333.2,54.1 L350.1,54.1 L350.1,60.7 Z" id="Shape"></path>
                        <rect id="Rectangle-path" x="356.6" y="1.3" width="7.1" height="59.4"></rect>
                        <path d="M402.2,39.7 C402.2,47.7 402.1,49.8 401.6,52 C400.9,55.4 399,61.5 388.6,61.5 C379.8,61.5 376.2,56.1 375.3,50.6 C375.1,48.9 374.7,46.3 374.7,31.5 C374.7,15.9 374.9,14 375.3,11.4 C375.8,8.7 377.3,0.2 389.1,0.2 C393.8,0.2 399.7,2.3 401.2,8.8 C401.8,11.7 401.8,15.2 401.8,19.9 L395,19.9 L395,15.4 C395,11.4 394.9,6.5 389,6.5 C382.9,6.5 382.4,11.5 382.2,13.8 C381.7,18.1 381.7,27.1 381.7,31.7 C381.7,35.3 381.9,47.3 382.2,49.7 C382.4,50.8 383.1,55.2 388.9,55.2 C394.1,55.2 394.8,50.6 395,49.6 C395.3,48.1 395.3,46.7 395.3,39.7 L402.2,39.7 L402.2,39.7 L402.2,39.7 L402.2,39.7 Z" id="Shape"></path>
                        <path d="M64.4,45.9 C64,53.1 62.1,60.9 50,60.9 C47.8,60.9 44.8,60.7 42.1,59.3 C38,57.1 36.8,53.1 36.4,50.7 C35.7,46.8 35.8,38.4 35.8,33.2 C35.8,29.5 36,17.4 36.2,14.3 C36.4,11.3 37.6,1.4 50.9,1.4 C63.2,1.4 64.2,10.4 64.5,13.5 C65,18.4 64.8,28.8 64.8,30.3 C65,34.9 64.8,41.7 64.4,45.9 M43.4,42.2 C43.6,47.7 42.6,55.1 50.3,55.1 C56.6,55.1 56.8,49.7 57.1,45.9 C57.4,41.1 57.6,35.2 57.5,30.5 C57.4,26 57.4,21.5 57.3,16.9 C57.2,13.3 57.1,7.5 50.5,7.5 C43.8,7.5 43.6,13.8 43.4,16.8 C43.2,19.7 43.2,20.5 43.2,34.5 C43.3,38.5 43.3,38.5 43.4,42.2" id="Shape"></path>
                        <path d="M99.8,45.8 C99.4,53 97.5,60.8 85.4,60.8 C83.2,60.8 80.2,60.6 77.5,59.2 C73.4,57 72.2,53 71.8,50.6 C71.2,46.7 71.2,38.3 71.2,33 C71.2,29.3 71.4,17.2 71.6,14.1 C71.8,11.1 73,1.2 86.3,1.2 C98.6,1.2 99.6,10.2 99.9,13.3 C100.4,18.2 100.2,28.6 100.2,30.1 C100.3,34.8 100.1,41.4 99.8,45.8 M78.8,42.1 C79,47.6 78,55 85.7,55 C92,55 92.2,49.6 92.5,45.8 C92.8,41 93,35.1 92.9,30.5 C92.8,26 92.8,21.5 92.7,16.9 C92.6,13.3 92.5,7.5 85.9,7.5 C79.2,7.5 79,13.8 78.8,16.8 C78.6,19.7 78.6,20.5 78.6,34.5 C78.7,38.2 78.7,38.4 78.8,42.1" id="Shape"></path>
                    </g>
                </g>
                <g>
                    <path d="M186.4,5.8 C186.7,5.8 134.1,0.9 134.1,0.9 C133,0.8 132,1 131.1,1.7 L95.7,26.8 L60.3,1.6 L59.6,1.1 C58.8,0.6 58,0.4 57.1,0.5 L5.1,5 C3.9,5.1 2.9,5.7 2.1,6.7 L1.7,7.2 C1.2,7.9 0.9,8.7 0.9,9.5 L0.8,124.5 C0.8,125.6 1.4,128.1 2.2,128.8 C3,129.6 4.1,131.4 5.2,131.4 L5.2,131.4 L72.9,129.9 L95.8,139.6 C96.4,139.9 96.7,139.8 97.3,139.8 C97.9,139.8 98.8,139.3 99.2,139 L121.9,128.4 L185.3,128.3 C186,128.4 185.1,128.4 185.8,128.2 C187.5,127.7 187.2,126.1 187.2,124.3 L187.2,9.8 L186.4,5.8 Z M9,12.8 L54.9,8.8 L65.1,120.6 L9,120.7 L9,12.8 L9,12.8 Z M178.5,120.5 L125.4,120.6 L133.6,8.9 L178.5,12.8 L178.5,120.5 L178.5,120.5 Z" id="Shape"></path>
                    <g transform="translate(227.000000, 2.000000)">
                        <path d="M6.6,32.6 L6.6,0.8 L0.4,0.8 L0.4,32.6 L6.4,32.6 L6.4,39 L18.7,39 L18.7,32.6 L6.6,32.6 Z" id="Shape"></path>
                        <path d="M37,32.6 L37,13.5 L24.7,13.5 L24.7,20 L30.8,20 L30.8,32.6 L24.7,32.6 L24.7,39 L43,39 L43,32.6 L37,32.6 L37,32.6 Z M37,0.8 L30.8,0.8 L30.8,7.2 L37,7.2 L37,0.8 L37,0.8 Z" id="Shape"></path>
                        <path d="M73.7,32.6 L55.7,32.6 L55.7,20 L73.7,20 L73.7,32.6 L73.7,32.6 Z M73.9,19.9 L73.9,13.5 L55.7,13.5 L55.7,0.8 L49.5,0.8 L49.5,39 L73.9,39 L73.9,32.6 L80,32.6 L80,19.8 L73.9,19.8 L73.9,19.9 Z" id="Shape"></path>
                        <path d="M93.3,7.2 L93.3,13.5 L87.3,13.5 L87.3,39 L93.5,39 L93.5,13.6 L111.7,13.6 L111.7,7.2 L93.3,7.2 Z" id="Shape"></path>
                        <path d="M141.6,19.9 L123.6,19.9 L123.6,13.6 L141.6,13.6 L141.6,19.9 L141.6,19.9 Z M141.8,26.3 L141.8,20 L147.9,20 L147.9,13.5 L141.8,13.5 L141.8,7.2 L123.4,7.2 L123.4,13.5 L117.3,13.5 L117.3,32.6 L123.4,32.6 L123.4,39 L147.8,39 L147.8,32.6 L123.6,32.6 L123.6,26.3 L141.8,26.3 L141.8,26.3 Z" id="Shape"></path>
                        <path d="M160.1,7.2 L160.1,13.5 L154,13.5 L154,39 L160.3,39 L160.3,13.6 L178.4,13.6 L178.4,7.2 L160.1,7.2 Z" id="Shape"></path>
                        <path d="M197.7,32.6 L197.7,13.5 L185.4,13.5 L185.4,20 L191.5,20 L191.5,32.6 L185.4,32.6 L185.4,39 L203.8,39 L203.8,32.6 L197.7,32.6 L197.7,32.6 Z M197.7,0.8 L191.5,0.8 L191.5,7.2 L197.7,7.2 L197.7,0.8 L197.7,0.8 Z" id="Shape"></path>
                        <path d="M234.1,19.9 L216.1,19.9 L216.1,13.6 L234.1,13.6 L234.1,19.9 L234.1,19.9 Z M234.3,26.3 L234.3,20 L240.4,20 L240.4,13.5 L234.3,13.5 L234.3,7.2 L215.9,7.2 L215.9,13.5 L209.8,13.5 L209.8,32.6 L215.9,32.6 L215.9,39 L240.3,39 L240.3,32.6 L216.1,32.6 L216.1,26.3 L234.3,26.3 L234.3,26.3 Z" id="Shape"></path>
                        <rect id="Rectangle-path" x="246.3" y="26.2" width="12.3" height="12.8"></rect>
                        <path d="M396.4,5.2 L396.4,11.5 L402.5,11.5 L402.5,27.5 L396.4,27.5 L396.4,33.8 L378.2,33.8 L378.2,46.5 L368.8,46.5 L368.8,5.1 L396.4,5.1 L396.4,5.2 Z M378.3,24.2 L393.2,24.2 L393.2,14.8 L378.3,14.8 L378.3,24.2 L378.3,24.2 Z" id="Shape"></path>
                        <path d="M322.4,5.2 L322.4,11.5 L328.5,11.5 L328.5,33.8 L322.4,33.8 L322.4,40.2 L300.9,40.2 L300.9,33.8 L294.8,33.8 L294.8,11.5 L300.9,11.5 L300.9,5.2 L322.4,5.2 L322.4,5.2 Z M304.2,30.5 L319,30.5 L319,14.8 L304.1,14.8 L304.1,30.5 L304.2,30.5 Z" id="Shape"></path>
                        <path d="M291.7,14.8 L273.5,14.8 L273.5,30.5 L291.7,30.5 L291.7,40.2 L270.2,40.2 L270.2,33.8 L264.1,33.8 L264.1,11.5 L270.2,11.5 L270.2,5.2 L291.7,5.2 L291.7,14.8 Z" id="Shape"></path>
                        <path d="M359.1,5.2 L359.1,11.5 L365.2,11.5 L365.2,33.8 L359.1,33.8 L359.1,40.2 L337.6,40.2 L337.6,33.8 L331.5,33.8 L331.5,11.5 L337.6,11.5 L337.6,5.2 L359.1,5.2 L359.1,5.2 Z M340.9,30.5 L355.8,30.5 L355.8,14.8 L340.9,14.8 L340.9,30.5 L340.9,30.5 Z" id="Shape"></path>
                    </g>
                    <g transform="translate(227.000000, 67.000000)">
                        <path d="M10.8,1.3 C16,1.3 19.9,1.3 22.9,3.2 C28.2,6.5 28.2,13.4 28.2,15.2 C28.2,23.1 25.3,28.6 18.9,28.6 C26.7,28.6 29.1,35.4 29.1,42.4 C29.1,49.1 28.5,53.3 25.4,56.7 C21.7,60.6 17.7,60.6 10.4,60.6 L0.5,60.6 L0.5,1.2 L10.8,1.2 L10.8,1.3 L10.8,1.3 Z M7.5,25.7 L12.3,25.7 C16.4,25.7 21.1,25.7 21.1,16.7 C21.1,8 17,8 11.6,8 L7.5,8 L7.5,25.7 L7.5,25.7 L7.5,25.7 Z M7.5,32.2 L7.5,54.4 L11.6,54.4 C17.3,54.4 21.9,54.4 21.9,44.6 C21.9,32.7 18.6,32.1 11.4,32.1 L7.5,32.2 L7.5,32.2 L7.5,32.2 Z" id="Shape"></path>
                        <path d="M136.9,60.7 L128.9,60.7 L118.7,30.4 L114.1,37.5 L114.1,60.7 L107.1,60.7 L107.1,1.3 L114.1,1.3 L114.1,27 L128.9,1.3 L136.9,1.3 L123.4,23.7 L136.9,60.7 Z" id="Shape"></path>
                        <path d="M173.1,60.7 L165.5,60.7 L155.7,34.7 L149.7,34.7 L149.7,60.7 L142.6,60.7 L142.6,1.3 L155.2,1.3 C162.8,1.3 170.4,2.6 170.4,17.5 C170.4,22 169.8,25.7 169.1,27.8 C167.5,32.7 164.3,33.4 162.7,33.9 L173.1,60.7 L173.1,60.7 Z M149.9,28.9 C157.9,28.9 159.1,28.9 160.6,27.8 C163.4,25.9 163.4,21.3 163.4,18.3 C163.4,14.7 163.3,10.9 160.5,9.1 C158.7,8 157.2,8 149.8,8 L149.8,28.8 L149.9,28.8 L149.9,28.9 Z" id="Shape"></path>
                        <path d="M206,60.7 L180,60.7 L180,1.3 L205.3,1.3 L205.3,8 L187.3,8 L187.3,25.7 L203.1,25.7 L203.1,32.4 L187.3,32.4 L187.3,54.1 L206,54.1 L206,60.7 Z" id="Shape"></path>
                        <path d="M221.1,60.7 L214,60.7 L214,1.2 L225.7,1.2 C232.1,1.2 236,1.6 239,5.9 C241.6,9.6 241.6,13.1 241.6,19.3 C241.6,27.4 240.3,33.1 234.8,35.3 C232,36.4 230.4,36.4 221.1,36.4 L221.1,60.7 L221.1,60.7 L221.1,60.7 Z M221.1,29.8 L225.9,29.8 C229.1,29.8 230.8,29.6 232.4,28.4 C234.6,26.7 234.6,24.4 234.6,19.8 C234.6,13.4 234.4,10.8 232,9.2 C230.2,7.9 228.6,7.9 221.2,7.9 L221.2,29.8 L221.1,29.8 L221.1,29.8 Z" id="Shape"></path>
                        <path d="M277.4,1.3 L277.4,41.3 C277.4,48.6 277.3,51.5 276.1,54.6 C273.5,60.9 266.6,61.5 263.5,61.5 C257.3,61.5 252.8,59.6 250.8,55 C249.7,52.3 249.5,50.7 249.5,41.8 L249.5,1.3 L256.7,1.3 L256.7,44.6 C256.7,49.7 256.7,55.1 263.6,55.1 C269.8,55.1 270,50.6 270,47.9 C270.1,45.6 270.1,45 270.1,40.7 L270.1,1.3 L277.4,1.3 L277.4,1.3 L277.4,1.3 Z" id="Shape"></path>
                        <path d="M299.2,1.3 C304.4,1.3 308.3,1.3 311.3,3.2 C316.6,6.5 316.6,13.4 316.6,15.2 C316.6,23.1 313.7,28.6 307.3,28.6 C315.1,28.6 317.5,35.4 317.5,42.4 C317.5,49.1 316.9,53.3 313.8,56.7 C310.1,60.6 306.1,60.6 298.8,60.6 L288.9,60.6 L288.9,1.2 L299.2,1.2 L299.2,1.3 L299.2,1.3 Z M295.8,25.7 L300.6,25.7 C304.7,25.7 309.4,25.7 309.4,16.7 C309.4,8 305.3,8 299.9,8 L295.8,8 L295.8,25.7 L295.8,25.7 L295.8,25.7 Z M295.8,32.2 L295.8,54.4 L299.9,54.4 C305.6,54.4 310.2,54.4 310.2,44.6 C310.2,32.7 306.9,32.1 299.7,32.1 L295.8,32.2 L295.8,32.2 L295.8,32.2 Z" id="Shape"></path>
                        <path d="M350.1,60.7 L326,60.7 L326,1.3 L333.2,1.3 L333.2,54.1 L350.1,54.1 L350.1,60.7 Z" id="Shape"></path>
                        <rect id="Rectangle-path" x="356.6" y="1.3" width="7.1" height="59.4"></rect>
                        <path d="M402.2,39.7 C402.2,47.7 402.1,49.8 401.6,52 C400.9,55.4 399,61.5 388.6,61.5 C379.8,61.5 376.2,56.1 375.3,50.6 C375.1,48.9 374.7,46.3 374.7,31.5 C374.7,15.9 374.9,14 375.3,11.4 C375.8,8.7 377.3,0.2 389.1,0.2 C393.8,0.2 399.7,2.3 401.2,8.8 C401.8,11.7 401.8,15.2 401.8,19.9 L395,19.9 L395,15.4 C395,11.4 394.9,6.5 389,6.5 C382.9,6.5 382.4,11.5 382.2,13.8 C381.7,18.1 381.7,27.1 381.7,31.7 C381.7,35.3 381.9,47.3 382.2,49.7 C382.4,50.8 383.1,55.2 388.9,55.2 C394.1,55.2 394.8,50.6 395,49.6 C395.3,48.1 395.3,46.7 395.3,39.7 L402.2,39.7 L402.2,39.7 L402.2,39.7 L402.2,39.7 Z" id="Shape"></path>
                        <path d="M64.4,45.9 C64,53.1 62.1,60.9 50,60.9 C47.8,60.9 44.8,60.7 42.1,59.3 C38,57.1 36.8,53.1 36.4,50.7 C35.7,46.8 35.8,38.4 35.8,33.2 C35.8,29.5 36,17.4 36.2,14.3 C36.4,11.3 37.6,1.4 50.9,1.4 C63.2,1.4 64.2,10.4 64.5,13.5 C65,18.4 64.8,28.8 64.8,30.3 C65,34.9 64.8,41.7 64.4,45.9 M43.4,42.2 C43.6,47.7 42.6,55.1 50.3,55.1 C56.6,55.1 56.8,49.7 57.1,45.9 C57.4,41.1 57.6,35.2 57.5,30.5 C57.4,26 57.4,21.5 57.3,16.9 C57.2,13.3 57.1,7.5 50.5,7.5 C43.8,7.5 43.6,13.8 43.4,16.8 C43.2,19.7 43.2,20.5 43.2,34.5 C43.3,38.5 43.3,38.5 43.4,42.2" id="Shape"></path>
                        <path d="M99.8,45.8 C99.4,53 97.5,60.8 85.4,60.8 C83.2,60.8 80.2,60.6 77.5,59.2 C73.4,57 72.2,53 71.8,50.6 C71.2,46.7 71.2,38.3 71.2,33 C71.2,29.3 71.4,17.2 71.6,14.1 C71.8,11.1 73,1.2 86.3,1.2 C98.6,1.2 99.6,10.2 99.9,13.3 C100.4,18.2 100.2,28.6 100.2,30.1 C100.3,34.8 100.1,41.4 99.8,45.8 M78.8,42.1 C79,47.6 78,55 85.7,55 C92,55 92.2,49.6 92.5,45.8 C92.8,41 93,35.1 92.9,30.5 C92.8,26 92.8,21.5 92.7,16.9 C92.6,13.3 92.5,7.5 85.9,7.5 C79.2,7.5 79,13.8 78.8,16.8 C78.6,19.7 78.6,20.5 78.6,34.5 C78.7,38.2 78.7,38.4 78.8,42.1" id="Shape"></path>
                    </g>
                </g>
            </g>
        </g>
    </g>
</svg>