<?xml version="1.0" encoding="utf-8"?>
<!-- Generator: Adobe Illustrator 17.0.0, SVG Export Plug-In . SVG Version: 6.00 Build 0)  -->
<!DOCTYPE svg PUBLIC "-//W3C//DTD SVG 1.1//EN" "http://www.w3.org/Graphics/SVG/1.1/DTD/svg11.dtd">
<svg version="1.1" id="Layer_1" xmlns="http://www.w3.org/2000/svg" xmlns:xlink="http://www.w3.org/1999/xlink" x="0px" y="0px"
	 width="503.327px" height="207.457px" viewBox="0 0 503.327 207.457" enable-background="new 0 0 503.327 207.457"
	 xml:space="preserve">
<g>
	<g>
		<path fill="#ED6E9B" d="M267.453,83.956c0.001,1.767,0.035,3.247,0.116,4.445c0.067,1.207,0.31,2.188,0.738,2.966
			c0.419,0.785,1.104,1.377,2.061,1.8c0.956,0.419,2.275,0.743,3.974,0.955c0.422,0.071,0.741,0.27,0.948,0.581
			c0.217,0.317,0.32,0.688,0.32,1.112c0,0.351-0.104,0.688-0.32,1.007c-0.207,0.318-0.526,0.472-0.948,0.472
			c-1.414,0-3.16-0.12-5.236-0.372c-2.089-0.236-4.19-0.367-6.31-0.367c-2.259,0-4.45,0.132-6.569,0.372
			c-2.118,0.251-4.051,0.372-5.825,0.372c-0.345,0-0.63-0.155-0.844-0.473c-0.205-0.318-0.312-0.656-0.312-1.008
			c0-0.422,0.106-0.794,0.312-1.111c0.214-0.31,0.535-0.509,0.958-0.579c1.767-0.212,3.127-0.536,4.074-0.956
			c0.948-0.422,1.637-1.008,2.071-1.754c0.42-0.74,0.67-1.651,0.737-2.747c0.067-1.096,0.103-2.458,0.102-4.075l-0.004-15.674
			c-0.001-3.322-0.036-5.966-0.104-7.937c-0.068-1.982-0.318-3.499-0.741-4.561c-0.43-1.062-1.088-1.785-1.967-2.171
			c-0.88-0.388-2.172-0.609-3.858-0.689c-0.364,0-0.637-0.137-0.846-0.42c-0.217-0.277-0.365-0.594-0.432-0.947
			c-0.07-0.353-0.015-0.689,0.165-1.01c0.17-0.317,0.475-0.473,0.896-0.474c1.197-0.146,2.944-0.424,5.252-0.853
			c2.288-0.426,4.77-0.988,7.46-1.693c0.137-0.069,0.423-0.121,0.843-0.162c0.425-0.034,0.708-0.055,0.846-0.055
			c0.705,0,1.312,0.286,1.807,0.854c0.486,0.561,0.701,1.232,0.632,2.009L267.234,56c0,0.352,0.145,0.385,0.43,0.102
			c0.346-0.494,0.93-1.231,1.737-2.225c0.812-0.982,1.882-1.972,3.183-2.965c1.302-0.983,2.895-1.85,4.764-2.593
			c1.869-0.744,4.008-1.111,6.41-1.112c4.372-0.002,7.824,0.866,10.377,2.59c2.536,1.732,4.519,4.29,5.935,7.678
			c0.345-0.775,1.016-1.752,2.006-2.915c0.99-1.165,2.265-2.291,3.819-3.387c1.552-1.094,3.307-2.024,5.289-2.81
			c1.973-0.777,4.129-1.165,6.465-1.165c3.372-0.001,6.131,0.513,8.253,1.528c2.12,1.027,3.772,2.422,4.982,4.187
			c1.191,1.769,2.006,3.862,2.434,6.301c0.43,2.442,0.635,5.068,0.637,7.884l0.004,16.842c0,1.765,0.034,3.246,0.102,4.443
			c0.075,1.208,0.287,2.189,0.642,2.967c0.355,0.785,0.914,1.379,1.688,1.8c0.779,0.42,1.914,0.745,3.399,0.957
			c0.42,0.072,0.742,0.27,0.948,0.58c0.214,0.318,0.315,0.689,0.315,1.112c0,0.35-0.102,0.688-0.315,1.007
			c-0.206,0.317-0.528,0.472-0.948,0.472c-0.921,0-2.368-0.12-4.345-0.372c-1.984-0.235-4.027-0.368-6.147-0.368
			c-2.252,0-4.425,0.133-6.504,0.373c-2.089,0.252-3.947,0.371-5.565,0.371c-0.345,0-0.637-0.155-0.843-0.472
			c-0.204-0.319-0.318-0.657-0.318-1.009c0-0.421,0.114-0.794,0.318-1.11c0.206-0.311,0.532-0.51,0.945-0.58
			c1.705-0.211,2.981-0.536,3.866-0.955c0.887-0.423,1.545-1.01,1.957-1.753c0.433-0.74,0.674-1.652,0.742-2.746
			c0.066-1.097,0.111-2.458,0.111-4.076l-0.007-13.662c-0.001-1.903-0.075-3.885-0.217-5.93c-0.136-2.051-0.515-3.92-1.112-5.618
			c-0.596-1.686-1.497-3.084-2.696-4.176c-1.208-1.097-2.893-1.648-5.083-1.648c-1.983,0.001-3.828,0.468-5.557,1.38
			c-1.731,0.921-3.235,2.086-4.508,3.5c-1.268,1.415-2.277,2.95-3.017,4.602c-0.742,1.664-1.1,3.269-1.1,4.819l0.003,16.099
			c0,2.05,0.035,3.688,0.103,4.929c0.07,1.232,0.278,2.204,0.639,2.902c0.346,0.709,0.915,1.225,1.689,1.544
			c0.777,0.317,1.907,0.577,3.398,0.79c0.414,0.07,0.738,0.269,0.948,0.579c0.203,0.318,0.311,0.689,0.311,1.111
			c0,0.351-0.108,0.688-0.311,1.009c-0.21,0.316-0.534,0.471-0.948,0.471c-0.934,0-2.381-0.119-4.344-0.369
			c-1.98-0.237-4.033-0.371-6.146-0.371c-2.268,0.003-4.438,0.135-6.515,0.373c-2.079,0.251-3.836,0.372-5.238,0.374
			c-0.354,0-0.638-0.155-0.854-0.472c-0.209-0.32-0.309-0.656-0.309-1.009c0-0.422,0.1-0.793,0.309-1.111
			c0.216-0.31,0.534-0.508,0.952-0.579c1.553-0.214,2.769-0.476,3.655-0.793c0.888-0.321,1.516-0.812,1.902-1.483
			c0.393-0.671,0.625-1.577,0.689-2.706c0.073-1.132,0.105-2.646,0.105-4.55l-0.003-13.662c-0.001-1.902-0.087-3.885-0.262-5.928
			c-0.179-2.051-0.585-3.919-1.224-5.619c-0.64-1.686-1.588-3.085-2.861-4.175c-1.266-1.097-3.031-1.649-5.293-1.648
			c-2.394,0-4.464,0.447-6.186,1.327c-1.741,0.89-3.153,2.037-4.24,3.441c-1.105,1.412-1.914,2.989-2.437,4.713
			c-0.527,1.732-0.794,3.449-0.794,5.136L267.453,83.956z"/>
		<path fill="#ED6E9B" d="M362.974,83.933c0,1.766,0.035,3.247,0.102,4.444c0.072,1.208,0.326,2.189,0.747,2.967
			c0.43,0.784,1.12,1.377,2.067,1.799c0.95,0.42,2.276,0.745,3.962,0.957c0.436,0.069,0.742,0.269,0.969,0.579
			c0.207,0.317,0.309,0.689,0.309,1.111c0,0.352-0.102,0.689-0.309,1.008c-0.227,0.318-0.533,0.472-0.969,0.472
			c-1.404,0-3.154-0.12-5.238-0.372c-2.086-0.235-4.179-0.368-6.286-0.368c-2.268,0-4.459,0.133-6.57,0.373
			c-2.119,0.252-4.071,0.372-5.825,0.372c-0.362,0-0.637-0.155-0.848-0.472c-0.211-0.319-0.326-0.657-0.326-1.009
			c0-0.422,0.115-0.794,0.326-1.111c0.211-0.311,0.527-0.509,0.951-0.58c1.755-0.212,3.119-0.536,4.074-0.955
			c0.956-0.422,1.647-1.009,2.058-1.752c0.434-0.739,0.676-1.653,0.743-2.748c0.067-1.095,0.111-2.457,0.111-4.074L353.014,68.9
			c0-3.321-0.043-5.968-0.109-7.938c-0.07-1.983-0.312-3.499-0.745-4.561c-0.412-1.063-1.068-1.786-1.949-2.171
			c-0.886-0.388-2.167-0.61-3.866-0.688c-0.355,0-0.639-0.137-0.852-0.422c-0.209-0.277-0.347-0.593-0.419-0.948
			c-0.073-0.353-0.022-0.688,0.155-1.008c0.177-0.319,0.477-0.474,0.899-0.474c1.205-0.148,2.945-0.427,5.238-0.854
			c2.293-0.426,4.789-0.986,7.471-1.693c0.141-0.07,0.425-0.123,0.846-0.163c0.42-0.035,0.705-0.054,0.85-0.054
			c0.7,0,1.303,0.284,1.796,0.853c0.5,0.56,0.704,1.231,0.639,2.009l-0.205,5.188c0,0.353,0.136,0.387,0.413,0.103
			c0.361-0.493,0.94-1.231,1.759-2.225c0.808-0.983,1.862-1.973,3.168-2.965c1.312-0.983,2.895-1.85,4.764-2.594
			c1.874-0.744,4.012-1.111,6.408-1.111c4.375-0.002,7.841,0.864,10.372,2.589c2.553,1.732,4.517,4.29,5.931,7.678
			c0.366-0.775,1.036-1.75,2.016-2.914c0.993-1.165,2.259-2.29,3.808-3.387c1.554-1.096,3.329-2.025,5.299-2.809
			c1.977-0.778,4.129-1.166,6.46-1.166c3.394,0,6.142,0.513,8.261,1.529c2.111,1.028,3.778,2.421,4.976,4.188
			c1.206,1.766,2.017,3.861,2.441,6.3c0.424,2.441,0.638,5.067,0.639,7.885l0.003,16.842c0.002,1.767,0.036,3.247,0.103,4.444
			c0.071,1.207,0.287,2.188,0.641,2.966c0.355,0.783,0.923,1.375,1.698,1.799c0.775,0.419,1.895,0.744,3.375,0.955
			c0.434,0.07,0.747,0.269,0.969,0.58c0.209,0.317,0.311,0.69,0.311,1.111c0,0.352-0.103,0.689-0.311,1.008
			c-0.222,0.317-0.535,0.473-0.966,0.473c-0.914,0-2.358-0.121-4.333-0.372c-1.976-0.234-4.023-0.368-6.143-0.368
			c-2.258,0-4.431,0.135-6.518,0.372c-2.077,0.252-3.93,0.372-5.547,0.372c-0.364,0-0.639-0.155-0.855-0.472
			c-0.216-0.319-0.32-0.657-0.32-1.008c0-0.423,0.104-0.794,0.32-1.111c0.216-0.31,0.526-0.508,0.955-0.579
			c1.69-0.212,2.98-0.536,3.861-0.956c0.878-0.422,1.529-1.008,1.963-1.753c0.414-0.739,0.671-1.651,0.742-2.747
			c0.07-1.094,0.101-2.457,0.101-4.074l-0.003-13.662c0-1.904-0.066-3.885-0.216-5.93c-0.15-2.051-0.51-3.92-1.114-5.617
			c-0.603-1.686-1.5-3.084-2.699-4.177c-1.198-1.097-2.896-1.648-5.085-1.648c-1.972,0.001-3.835,0.468-5.559,1.384
			c-1.73,0.918-3.226,2.084-4.496,3.497c-1.275,1.414-2.274,2.95-3.015,4.604c-0.741,1.663-1.119,3.268-1.119,4.819l0.003,16.098
			c0.001,2.049,0.036,3.688,0.108,4.928c0.074,1.232,0.293,2.204,0.636,2.902c0.36,0.71,0.921,1.225,1.698,1.544
			c0.772,0.318,1.903,0.581,3.39,0.79c0.43,0.071,0.74,0.27,0.954,0.579c0.215,0.318,0.32,0.69,0.32,1.112
			c0,0.352-0.105,0.688-0.32,1.008c-0.214,0.317-0.524,0.473-0.954,0.473c-0.913,0.002-2.363-0.119-4.346-0.37
			c-1.975-0.238-4.016-0.369-6.134-0.368c-2.259,0-4.432,0.132-6.518,0.37c-2.084,0.251-3.828,0.375-5.238,0.375
			c-0.366,0-0.638-0.155-0.843-0.473c-0.216-0.319-0.33-0.657-0.33-1.008c0-0.423,0.114-0.794,0.33-1.111
			c0.205-0.31,0.523-0.509,0.944-0.58c1.551-0.213,2.775-0.478,3.652-0.794c0.88-0.319,1.517-0.813,1.905-1.483
			c0.39-0.671,0.62-1.576,0.69-2.705c0.062-1.131,0.112-2.646,0.112-4.549l-0.003-13.662c-0.001-1.904-0.1-3.885-0.279-5.929
			c-0.173-2.051-0.577-3.918-1.206-5.616c-0.642-1.688-1.598-3.086-2.864-4.177c-1.278-1.095-3.043-1.648-5.299-1.647
			c-2.408,0-4.467,0.447-6.195,1.327c-1.725,0.891-3.138,2.038-4.232,3.444c-1.096,1.41-1.908,2.986-2.439,4.71
			c-0.537,1.733-0.792,3.451-0.792,5.136L362.974,83.933z"/>
		<path fill="#ED6E9B" d="M477.567,85.284c0,2.476,0.224,4.201,0.689,5.188c0.458,0.989,1.361,1.481,2.696,1.481
			c0.777,0,1.415-0.087,1.908-0.264c0.495-0.176,1.205-0.547,2.118-1.116c0.206-0.137,0.439-0.137,0.691,0
			c0.237,0.148,0.453,0.338,0.636,0.588c0.171,0.249,0.293,0.527,0.357,0.844c0.076,0.319,0,0.584-0.202,0.792
			c-2.759,3.318-5.996,4.981-9.739,4.982c-2.047,0-3.801-0.551-5.249-1.643c-1.446-1.088-2.524-2.379-3.229-3.862
			c-0.141-0.352-0.345-0.387-0.64-0.1c-1.829,1.617-3.962,2.963-6.396,4.024c-2.444,1.052-5.497,1.586-9.169,1.586
			c-4.016,0.001-7.125-1.072-9.314-3.231c-2.19-2.153-3.282-5.202-3.284-9.156c-0.001-5.084,2.358-8.981,7.099-11.706
			c4.722-2.718,11.605-4.077,20.644-4.079c0.141,0,0.244-0.176,0.311-0.527c0.067-0.354,0.102-1.162,0.102-2.438v-2.863
			c0-1.759-0.137-3.42-0.415-4.974c-0.289-1.549-0.758-2.911-1.431-4.075c-0.671-1.163-1.609-2.085-2.809-2.754
			c-1.208-0.664-2.691-0.999-4.443-0.999c-2.613,0.001-4.734,0.508-6.361,1.537c-1.622,1.024-2.431,2.342-2.431,3.972
			c0,0.774,0.24,1.532,0.739,2.275c0.494,0.738,0.745,1.496,0.745,2.274c0,0.988-0.501,1.942-1.483,2.862
			c-0.991,0.913-2.19,1.371-3.602,1.371c-1.903,0-3.267-0.509-4.075-1.532c-0.813-1.021-1.219-2.278-1.22-3.76
			c0-1.766,0.493-3.438,1.482-5.03c0.984-1.589,2.326-2.951,4.024-4.081c1.696-1.129,3.662-2.025,5.926-2.696
			c2.26-0.675,4.629-1.009,7.093-1.01c5.657,0,10.104,1.305,13.349,3.916c3.244,2.612,4.875,6.956,4.877,13.02L477.567,85.284z
			 M467.602,74.803c-0.001-0.778-0.036-1.253-0.105-1.436c-0.067-0.171-0.244-0.258-0.528-0.258
			c-5.788,0.493-10.071,1.71-12.863,3.658c-2.79,1.937-4.188,4.427-4.188,7.462c0.002,2.12,0.535,3.906,1.599,5.352
			c1.057,1.449,2.815,2.162,5.298,2.162c1.618,0,3.329-0.313,5.138-0.95c1.791-0.638,3.395-1.549,4.81-2.757
			c0.567-0.56,0.842-1.128,0.842-1.689L467.602,74.803z"/>
		<path fill="#020202" d="M258.445,115.204c0-0.897-0.031-1.777-0.094-2.612c-0.069-0.863-0.212-1.653-0.423-2.387
			c-0.212-0.74-0.533-1.355-0.988-1.887c-0.445-0.529-1.052-0.892-1.812-1.104c-0.479-0.112-0.954-0.214-1.47-0.296
			c-0.509-0.077-0.989-0.139-1.451-0.183c-0.269,0-0.456-0.094-0.579-0.301c-0.125-0.213-0.191-0.427-0.191-0.673
			c0-0.242,0.067-0.47,0.191-0.674c0.121-0.19,0.31-0.301,0.578-0.301c1.433,0,2.732,0.035,3.873,0.128
			c1.152,0.078,2.488,0.114,4.018,0.114c0.635,0,1.342,0,2.139-0.03c0.774-0.023,1.589-0.05,2.422-0.087
			c0.82-0.034,1.624-0.08,2.42-0.096c0.771-0.025,1.489-0.035,2.125-0.035c1.654,0,3.396,0.133,5.232,0.394
			c1.809,0.266,3.514,0.764,5.058,1.499c1.543,0.72,2.825,1.732,3.819,3.007c0.99,1.287,1.495,2.94,1.495,4.964
			c0,1.267-0.196,2.366-0.598,3.297c-0.406,0.926-0.953,1.743-1.634,2.427c-0.667,0.699-1.486,1.296-2.411,1.805
			c-0.934,0.505-1.907,0.938-2.931,1.321c-0.35,0.104-0.489,0.277-0.455,0.478c0.054,0.2,0.191,0.344,0.455,0.426
			c1.653,0.476,3.129,1.035,4.429,1.674c1.293,0.627,2.394,1.371,3.269,2.229c0.897,0.842,1.574,1.844,2.044,3.001
			c0.473,1.158,0.702,2.534,0.702,4.115c0,2.116-0.388,3.861-1.171,5.241c-0.786,1.38-1.833,2.479-3.162,3.254
			c-1.312,0.797-2.804,1.367-4.478,1.684c-1.685,0.325-3.414,0.488-5.193,0.488c-0.81,0-1.708-0.027-2.709-0.059
			c-1.005-0.045-2.03-0.072-3.091-0.083c-1.061-0.027-2.132-0.051-3.206-0.09c-1.093-0.043-2.104-0.062-3.042-0.062
			c-0.885,0-1.698,0.008-2.417,0.03c-0.72,0.012-1.396,0.045-2.071,0.087c-0.652,0.038-1.335,0.091-2.021,0.148
			c-0.712,0.064-1.507,0.135-2.397,0.211c-0.296,0.053-0.522-0.029-0.696-0.237c-0.18-0.201-0.277-0.427-0.294-0.672
			c-0.018-0.246,0.041-0.488,0.188-0.729c0.154-0.25,0.401-0.379,0.738-0.427c1.01-0.12,1.891-0.292,2.638-0.48
			c0.746-0.208,1.354-0.529,1.817-0.963c0.466-0.414,0.811-0.946,1.01-1.605c0.225-0.655,0.329-1.504,0.329-2.558L258.445,115.204z
			 M265.38,121.656c0,0.409,0.12,0.782,0.357,1.098c0.229,0.327,0.625,0.486,1.183,0.486h1.209c1.393,0,2.689-0.116,3.855-0.334
			c1.166-0.226,2.169-0.645,3.026-1.253c0.837-0.611,1.507-1.425,1.997-2.471c0.483-1.032,0.733-2.383,0.733-4.044
			c0-2.812-0.734-4.805-2.19-5.993c-1.475-1.205-3.588-1.812-6.348-1.812h-2.152c-0.818,0-1.285,0.23-1.448,0.655
			c-0.143,0.422-0.225,1.148-0.225,2.152L265.38,121.656z M265.384,133.906c0,2.199,0.082,3.922,0.225,5.199
			c0.163,1.287,0.475,2.245,0.988,2.875c0.509,0.623,1.247,1.023,2.212,1.187c0.942,0.152,2.228,0.235,3.848,0.235
			c2.545,0,4.378-0.675,5.501-2.014c1.126-1.337,1.691-3.372,1.69-6.092c0-1.938-0.292-3.538-0.893-4.776
			c-0.593-1.241-1.387-2.2-2.392-2.893c-0.992-0.696-2.176-1.17-3.534-1.431c-1.354-0.26-2.801-0.396-4.328-0.396h-1.213
			c-0.85,0-1.41,0.267-1.684,0.796c-0.284,0.518-0.423,1.18-0.423,1.937L265.384,133.906z"/>
		<path fill="#020202" d="M321.211,146.488c-6.666,0-11.888-1.786-15.66-5.412c-3.793-3.605-5.675-9.01-5.679-16.206
			c0-3.076,0.527-5.914,1.599-8.519c1.057-2.596,2.522-4.83,4.424-6.705c1.878-1.87,4.146-3.324,6.777-4.348
			c2.63-1.044,5.532-1.556,8.728-1.556c3.09-0.004,5.932,0.494,8.534,1.477c2.575,0.997,4.806,2.414,6.677,4.228
			c1.867,1.83,3.318,4.048,4.37,6.615c1.04,2.589,1.559,5.453,1.561,8.622c0.002,3.532-0.554,6.655-1.68,9.35
			c-1.121,2.706-2.667,4.971-4.583,6.836c-1.94,1.835-4.199,3.241-6.79,4.2C326.895,146.014,324.142,146.486,321.211,146.488z
			 M321.475,143.942c2.07,0,3.913-0.531,5.502-1.589c1.588-1.06,2.936-2.451,4.035-4.167c1.104-1.729,1.939-3.724,2.521-5.969
			c0.57-2.253,0.858-4.604,0.857-7.038c0-2.361-0.23-4.674-0.669-6.954c-0.447-2.266-1.185-4.296-2.193-6.056
			c-1.026-1.756-2.386-3.188-4.091-4.259c-1.7-1.081-3.77-1.611-6.235-1.611c-2.289,0-4.276,0.541-5.954,1.641
			c-1.668,1.093-3.049,2.521-4.102,4.292c-1.064,1.768-1.844,3.782-2.356,6.035c-0.512,2.252-0.763,4.542-0.763,6.854
			c0,2.437,0.219,4.793,0.633,7.065c0.424,2.282,1.145,4.276,2.172,6.006c1.02,1.715,2.388,3.106,4.108,4.162
			C316.661,143.412,318.834,143.942,321.475,143.942z"/>
		<path fill="#020202" d="M373.367,146.475c-6.664,0.003-11.883-1.785-15.663-5.409c-3.787-3.607-5.668-9.01-5.669-16.207
			c-0.001-3.075,0.519-5.914,1.587-8.521c1.065-2.597,2.525-4.83,4.433-6.704c1.889-1.869,4.137-3.325,6.773-4.351
			c2.631-1.041,5.546-1.555,8.73-1.556c3.092,0,5.932,0.497,8.543,1.478c2.574,0.996,4.811,2.415,6.669,4.23
			c1.884,1.83,3.333,4.044,4.374,6.612c1.031,2.589,1.56,5.452,1.563,8.621c0.001,3.531-0.568,6.655-1.678,9.35
			c-1.14,2.706-2.67,4.975-4.59,6.837c-1.935,1.837-4.195,3.24-6.799,4.201C379.062,146.002,376.303,146.475,373.367,146.475z
			 M373.625,143.928c2.083,0,3.924-0.528,5.515-1.587c1.585-1.059,2.94-2.453,4.045-4.167c1.096-1.73,1.927-3.725,2.505-5.97
			c0.577-2.25,0.866-4.601,0.864-7.036c0-2.361-0.234-4.674-0.674-6.954c-0.451-2.268-1.181-4.297-2.207-6.058
			c-1.009-1.757-2.366-3.187-4.069-4.257c-1.707-1.081-3.777-1.613-6.245-1.613c-2.284,0.002-4.283,0.543-5.952,1.643
			c-1.678,1.091-3.045,2.519-4.105,4.29c-1.067,1.77-1.84,3.785-2.349,6.036c-0.514,2.252-0.767,4.543-0.767,6.854
			c0,2.437,0.219,4.794,0.637,7.066c0.418,2.282,1.139,4.275,2.164,6.002c1.012,1.716,2.393,3.108,4.116,4.167
			C368.82,143.401,370.99,143.931,373.625,143.928z"/>
		<path fill="#020202" d="M410.764,114.08c0-1.271-0.083-2.349-0.232-3.236c-0.143-0.892-0.439-1.626-0.854-2.192
			c-0.422-0.578-1.028-1.011-1.823-1.316c-0.782-0.297-1.835-0.495-3.159-0.575c-0.246,0-0.435-0.117-0.565-0.324
			c-0.127-0.237-0.177-0.465-0.177-0.712c0-0.242,0.05-0.47,0.177-0.673c0.131-0.191,0.319-0.301,0.565-0.301
			c1.372,0,2.914,0.076,4.651,0.215c1.739,0.131,3.388,0.21,4.919,0.21c0.887,0,1.691-0.019,2.424-0.062
			c0.708-0.052,1.412-0.09,2.097-0.151c0.682-0.06,1.358-0.104,2.058-0.15c0.715-0.049,1.505-0.065,2.397-0.065
			c0.262,0,0.438,0.109,0.572,0.301c0.126,0.204,0.191,0.431,0.191,0.673c0,0.246-0.065,0.475-0.191,0.712
			c-0.135,0.208-0.301,0.323-0.505,0.323c-1.314,0.081-2.348,0.258-3.104,0.517c-0.726,0.269-1.299,0.68-1.686,1.22
			c-0.375,0.55-0.613,1.278-0.697,2.159c-0.084,0.889-0.122,2.031-0.122,3.427l0.001,10.904c0,0.441,0.172,0.711,0.51,0.812
			c0.343,0.109,0.807-0.127,1.404-0.697c2.837-2.713,5.292-5.319,7.345-7.771c2.068-2.456,3.65-4.574,4.752-6.365
			c0.508-0.861,0.794-1.541,0.865-2.048c0.052-0.501-0.044-0.915-0.327-1.211c-0.273-0.306-0.698-0.529-1.267-0.64
			c-0.586-0.123-1.249-0.224-2.002-0.305c-0.303-0.05-0.535-0.154-0.677-0.362c-0.155-0.212-0.238-0.427-0.238-0.673
			c0-0.242,0.083-0.469,0.206-0.673c0.13-0.192,0.313-0.301,0.565-0.301c1.493-0.003,2.816,0.072,3.981,0.212
			c1.174,0.135,2.399,0.212,3.667,0.212c1.154,0,2.165-0.078,3.053-0.212c0.9-0.142,2.011-0.216,3.318-0.216
			c0.211,0,0.37,0.11,0.483,0.301c0.104,0.203,0.165,0.431,0.165,0.672c0,0.247-0.061,0.462-0.165,0.674
			c-0.113,0.208-0.272,0.312-0.483,0.363c-0.844,0.079-1.555,0.196-2.135,0.344c-0.574,0.132-1.086,0.336-1.524,0.575
			c-0.454,0.242-0.866,0.573-1.285,1.009c-0.39,0.426-0.864,0.957-1.425,1.606c-0.765,0.97-1.571,1.994-2.393,3.05
			c-0.817,1.045-1.676,2.097-2.541,3.126c-0.866,1.052-1.741,2.071-2.604,3.052c-0.881,1.006-1.719,1.883-2.518,2.651
			c-0.342,0.326-0.436,0.623-0.296,0.885c0.161,0.274,0.416,0.55,0.808,0.888c1.022,0.883,2.077,1.923,3.172,3.103
			c1.109,1.182,2.217,2.458,3.319,3.837c1.101,1.385,2.166,2.816,3.206,4.299c1.065,1.473,2.037,2.961,2.971,4.414
			c0.902,1.417,1.877,2.496,2.939,3.251c1.054,0.76,2.482,1.214,4.268,1.373c0.251,0.042,0.438,0.164,0.57,0.365
			c0.13,0.207,0.19,0.423,0.19,0.675c0,0.236-0.06,0.464-0.19,0.66c-0.133,0.207-0.319,0.307-0.57,0.307
			c-0.944,0-1.784-0.014-2.548-0.062c-0.755-0.037-1.495-0.087-2.204-0.15c-0.698-0.057-1.41-0.107-2.131-0.185
			c-0.728-0.046-1.484-0.075-2.285-0.075c-0.815,0-1.553,0.029-2.231,0.075c-0.68,0.08-1.349,0.129-2.016,0.187
			c-0.65,0.064-1.314,0.114-1.997,0.15c-0.686,0.049-1.449,0.064-2.294,0.064c-0.264,0-0.46-0.097-0.604-0.305
			c-0.152-0.197-0.236-0.425-0.256-0.659c-0.029-0.254,0.033-0.478,0.191-0.704c0.145-0.229,0.362-0.337,0.667-0.337
			c0.464-0.035,0.948-0.113,1.43-0.214c0.493-0.1,0.884-0.293,1.18-0.583c0.304-0.28,0.464-0.658,0.508-1.123
			c0.045-0.472-0.119-1.066-0.508-1.797c-0.729-1.339-1.38-2.525-1.977-3.534c-0.602-1.013-1.221-1.964-1.885-2.831
			c-0.65-0.87-1.377-1.731-2.157-2.559c-0.792-0.833-1.713-1.721-2.766-2.645c-0.511-0.46-1.038-0.741-1.571-0.86
			c-0.531-0.121-0.965-0.184-1.29-0.184c-0.989,0-1.633,0.259-1.925,0.762c-0.308,0.511-0.445,1.059-0.445,1.618l0.004,7.679
			c0,1.345,0.057,2.406,0.159,3.165c0.107,0.772,0.335,1.372,0.662,1.796c0.353,0.425,0.863,0.726,1.572,0.891
			c0.692,0.145,1.63,0.306,2.771,0.419c0.253,0.04,0.452,0.164,0.604,0.365c0.141,0.208,0.214,0.422,0.214,0.676
			c0,0.234-0.073,0.462-0.214,0.659c-0.152,0.208-0.377,0.305-0.669,0.305c-0.854,0-1.621-0.014-2.331-0.059
			c-0.699-0.037-1.388-0.087-2.039-0.151c-0.652-0.057-1.306-0.107-1.968-0.188c-0.663-0.045-1.381-0.075-2.126-0.075
			c-1.621,0-3.295,0.075-5.016,0.24c-1.721,0.159-3.276,0.236-4.676,0.236c-0.258,0-0.454-0.098-0.568-0.305
			c-0.118-0.196-0.2-0.425-0.2-0.659c0-0.253,0.082-0.468,0.2-0.674c0.114-0.203,0.31-0.326,0.566-0.366
			c1.315-0.116,2.365-0.274,3.148-0.461c0.794-0.181,1.407-0.487,1.851-0.913c0.444-0.424,0.748-1.016,0.892-1.763
			c0.147-0.752,0.23-1.792,0.23-3.136L410.764,114.08z"/>
		<path fill="#020202" d="M462.312,112.957c0,1.234,0.281,2.253,0.798,3.075c0.536,0.84,1.221,1.537,2.045,2.108
			c0.83,0.566,1.738,1.061,2.737,1.502c1.002,0.415,1.968,0.83,2.897,1.23c1.613,0.734,3.212,1.517,4.814,2.32
			c1.586,0.817,3.038,1.752,4.302,2.834c1.27,1.07,2.296,2.357,3.085,3.839c0.78,1.472,1.181,3.271,1.181,5.381
			c0.001,2.116-0.451,3.896-1.37,5.336c-0.916,1.446-2.097,2.611-3.562,3.538c-1.463,0.916-3.111,1.572-4.942,1.983
			c-1.82,0.394-3.653,0.602-5.479,0.604c-1.183,0-2.523-0.168-3.998-0.516c-1.492-0.341-2.857-0.853-4.083-1.557
			c-0.221-0.078-0.415-0.155-0.613-0.237c-0.183-0.083-0.427-0.131-0.732-0.131c-0.294,0.003-0.603,0.132-0.954,0.37
			c-0.332,0.252-0.631,0.673-0.885,1.278c-0.126,0.245-0.299,0.421-0.505,0.499c-0.223,0.074-0.442,0.1-0.667,0.083
			c-0.238-0.016-0.432-0.083-0.57-0.21c-0.16-0.127-0.238-0.271-0.238-0.423c0.132-0.896,0.258-1.86,0.361-2.894
			c0.096-1.031,0.148-2.084,0.148-3.14c0-1.051-0.037-2.106-0.096-3.177c-0.056-1.046-0.181-2.148-0.338-3.28
			c-0.06-0.245,0.038-0.451,0.245-0.604c0.212-0.164,0.448-0.264,0.704-0.283c0.263-0.019,0.495,0.02,0.732,0.127
			c0.23,0.101,0.36,0.272,0.409,0.514c0.264,1.665,0.724,3.178,1.409,4.542c0.68,1.353,1.523,2.512,2.541,3.47
			c1.034,0.944,2.192,1.693,3.474,2.218c1.292,0.536,2.703,0.793,4.232,0.791c1.147,0,2.245-0.151,3.283-0.458
			c1.028-0.301,1.967-0.755,2.767-1.344c0.808-0.584,1.45-1.308,1.915-2.156c0.461-0.843,0.707-1.855,0.707-2.989
			c-0.001-1.465-0.344-2.738-0.996-3.833c-0.662-1.095-1.483-2.044-2.444-2.832c-0.989-0.795-2.074-1.494-3.268-2.081
			c-1.175-0.576-2.309-1.123-3.371-1.603c-1.395-0.621-2.803-1.242-4.195-1.882c-1.405-0.653-2.668-1.447-3.77-2.351
			c-1.103-0.912-1.986-2.006-2.67-3.29c-0.681-1.28-1.016-2.882-1.016-4.789c0-1.944,0.411-3.57,1.247-4.901
			c0.817-1.321,1.912-2.386,3.264-3.199c1.373-0.814,2.916-1.403,4.655-1.766c1.74-0.366,3.543-0.544,5.404-0.544
			c1.196,0,2.197,0.072,3.035,0.21c0.829,0.139,1.751,0.374,2.771,0.695c0.548,0.169,1.004,0.306,1.375,0.406
			c0.349,0.096,0.7,0.14,1.048,0.14c0.51,0,0.865-0.188,1.074-0.605c0.091-0.15,0.238-0.272,0.488-0.333
			c0.234-0.064,0.454-0.083,0.672-0.064c0.198,0.021,0.393,0.066,0.564,0.153c0.171,0.094,0.238,0.208,0.182,0.365
			c-0.197,0.729-0.341,1.469-0.399,2.187c-0.068,0.738-0.102,1.514-0.102,2.322c0,1.05,0.067,2.01,0.191,2.868
			c0.13,0.851,0.232,1.861,0.314,3.04c0,0.127-0.081,0.233-0.237,0.341c-0.183,0.101-0.377,0.157-0.615,0.172
			c-0.23,0.029-0.453-0.007-0.674-0.085c-0.208-0.078-0.327-0.22-0.381-0.428c-0.424-1.79-0.893-3.269-1.399-4.425
			c-0.516-1.152-1.151-2.048-1.906-2.703c-0.767-0.647-1.696-1.1-2.77-1.337c-1.079-0.246-2.399-0.367-3.924-0.367
			c-1.061,0-2.065,0.135-3.017,0.409c-0.971,0.252-1.796,0.65-2.523,1.18c-0.721,0.531-1.305,1.175-1.722,1.985
			C462.532,111.038,462.312,111.943,462.312,112.957z"/>
	</g>
	<path fill="#ED6E9B" d="M163.607,97.496l76.784-0.018c2.695-0.001,4.045-1.883,4.045-5.659c-0.002-7.365-1.212-14.233-3.66-20.615
		c-2.407-6.363-5.788-11.847-10.099-16.436c-4.311-4.571-9.549-8.171-15.758-10.775c-6.206-2.588-13.063-3.898-20.616-3.896
		c-8.983,0.002-17.153,1.712-24.515,5.127c-6.303,2.922-11.869,6.711-16.715,11.334c-20.52-22.27-53.681-16.231-53.681-16.231
		s0.029,0.039,0.06,0.081c-0.785,0.094-1.561,0.211-2.328,0.344c-0.252,0.044-0.498,0.099-0.748,0.146
		c-0.513,0.098-1.024,0.198-1.529,0.313c-0.291,0.066-0.577,0.141-0.865,0.213c-0.457,0.114-0.913,0.231-1.363,0.357
		c-0.299,0.084-0.594,0.173-0.89,0.264c-0.434,0.132-0.865,0.268-1.292,0.412c-0.295,0.099-0.588,0.2-0.879,0.304
		c-0.425,0.152-0.846,0.311-1.265,0.474c-0.28,0.109-0.561,0.217-0.839,0.332c-0.433,0.178-0.86,0.365-1.287,0.554
		c-0.253,0.113-0.509,0.222-0.76,0.338c-0.479,0.221-0.95,0.454-1.419,0.689c-0.191,0.096-0.384,0.186-0.574,0.283
		c-0.653,0.337-1.298,0.685-1.934,1.045c-0.134,0.076-0.264,0.157-0.396,0.233c-0.501,0.29-0.999,0.583-1.491,0.887
		c-0.233,0.144-0.461,0.293-0.691,0.44c-0.386,0.246-0.771,0.491-1.149,0.744c-0.252,0.168-0.501,0.341-0.751,0.512
		c-0.35,0.241-0.699,0.483-1.044,0.73c-0.254,0.182-0.506,0.366-0.757,0.551c-0.334,0.247-0.666,0.495-0.996,0.747
		c-0.248,0.19-0.496,0.38-0.74,0.572c-0.327,0.256-0.649,0.516-0.97,0.776c-0.238,0.193-0.476,0.385-0.711,0.58
		c-0.329,0.274-0.654,0.552-0.979,0.831c-0.216,0.186-0.435,0.369-0.648,0.556c-0.041,0.036-0.084,0.071-0.125,0.107l0.001,0.003
		c-10.039,8.829-17.3,19.363-22.299,24.695C34.676,93.372,20.493,93.34,16.907,80.253c-3.082,37.433,19.867,83.408,74.68,87.126
		c7.108,0.482,18.886,0.489,19.352,0.498c0,0-0.82-2.637-1.251-3.599c-8.353-18.63-51.081-15.944-50.154-28.518
		c0.329-4.727,3.992-5.791,4.107-8.907c0.12-3.1-3.607-4.679-3.818-6.516c-0.392-3.52,2.077-1.497,2.66-4.61
		c0.429-2.314-1.945-3.741-1.179-5.397c0.738-1.598,4.368-1.291,4.733-3.621c0.632-3.632-5.457-4.581-2.41-8.888
		c1.718-2.391,10.322-1.572,15.278-9.07c-0.887-2.147-4.268-2.58-3.378-5.878c4.575,6.079,6.479,0.186,8.589-6.394
		c7.024-14.79,15.563-14.971,15.563-14.971c-7.899,24.939,10.671,72.227,51.032,96.065c0,0,0.744,0.415,2.125,1.071
		c0.066,0.031,0.131,0.062,0.2,0.094c0.119,0.057,0.243,0.114,0.371,0.173c0.102,0.047,0.207,0.095,0.315,0.145
		c0.118,0.054,0.235,0.108,0.361,0.164c0.145,0.065,0.298,0.133,0.452,0.202c0.105,0.046,0.204,0.091,0.314,0.139
		c0.262,0.115,0.537,0.233,0.823,0.355c0.084,0.036,0.174,0.073,0.259,0.109c0.218,0.091,0.44,0.184,0.67,0.278
		c0.116,0.047,0.234,0.095,0.353,0.143c0.222,0.09,0.448,0.18,0.68,0.272c0.117,0.046,0.235,0.093,0.355,0.14
		c0.265,0.103,0.536,0.208,0.813,0.312c0.098,0.037,0.191,0.073,0.292,0.11c0.769,0.289,1.585,0.584,2.449,0.882
		c0.1,0.034,0.203,0.068,0.304,0.102c0.334,0.114,0.676,0.23,1.024,0.344c0.128,0.042,0.258,0.084,0.388,0.126
		c0.345,0.112,0.695,0.223,1.053,0.335c0.123,0.038,0.245,0.077,0.371,0.115c0.431,0.133,0.872,0.266,1.32,0.398
		c0.05,0.014,0.098,0.029,0.148,0.043c0.516,0.151,1.043,0.3,1.582,0.448c0.065,0.018,0.135,0.036,0.202,0.054
		c0.454,0.124,0.914,0.246,1.382,0.366c0.152,0.039,0.306,0.077,0.459,0.116c0.399,0.102,0.805,0.202,1.214,0.3
		c0.169,0.04,0.337,0.081,0.508,0.121c0.43,0.101,0.867,0.2,1.308,0.297c0.145,0.032,0.286,0.064,0.433,0.096
		c1.177,0.255,2.392,0.497,3.643,0.722c0.164,0.029,0.329,0.056,0.493,0.085c0.462,0.081,0.929,0.16,1.4,0.235
		c0.206,0.033,0.413,0.065,0.621,0.097c0.45,0.07,0.905,0.136,1.363,0.201c0.208,0.029,0.416,0.06,0.627,0.088
		c0.525,0.07,1.056,0.137,1.591,0.2c0.138,0.016,0.274,0.034,0.413,0.05c0.676,0.078,1.36,0.149,2.053,0.214
		c0.152,0.015,0.309,0.026,0.462,0.04c0.537,0.048,1.077,0.093,1.622,0.133c0.241,0.018,0.484,0.033,0.726,0.049
		c0.473,0.031,0.948,0.06,1.426,0.084c0.26,0.014,0.521,0.027,0.783,0.038c0.497,0.022,0.998,0.039,1.5,0.054
		c0.234,0.007,0.466,0.016,0.701,0.02c0.736,0.017,1.477,0.027,2.226,0.027c0,0-0.031-0.028-0.076-0.074
		c0.379,0.029,0.753,0.087,1.136,0.074c18.043-0.6,34.163-6.476,46.073-18.829c0.626-0.648,0.712-1.526,0.546-2.434
		c-0.177-0.896-0.597-1.71-1.221-2.411c-0.638-0.722-1.428-1.168-2.425-1.355c-0.99-0.166-1.929,0.103-2.824,0.825
		c-4.133,3.398-9.076,5.611-14.811,6.591c-5.76,0.991-11.703,1.48-17.784,1.482c-5.933,0.001-11.463-0.88-16.575-2.685
		c-5.132-1.788-9.535-4.714-13.211-8.754c-3.687-4.032-6.55-9.289-8.625-15.766c-2.073-6.465-3.105-14.367-3.107-23.693
		c0-0.893,0.049-1.665,0.134-2.299C162.202,97.817,162.714,97.496,163.607,97.496z M163.062,80.787
		c0.542-4.129,1.443-8.066,2.684-11.846c1.26-3.778,3.11-7.058,5.536-9.836c2.415-2.793,5.381-5.022,8.878-6.732
		c3.508-1.706,7.683-2.56,12.537-2.561c3.944-0.001,7.454,0.799,10.506,2.41c3.046,1.626,5.663,3.768,7.816,6.474
		c2.16,2.689,3.816,5.775,4.978,9.288c1.171,3.494,1.762,7.142,1.762,10.904c0,2.526-0.173,4.691-0.545,6.474
		c-0.354,1.789-1.793,2.684-4.311,2.685l-49.04,0.011c-0.714,0-1.12-0.667-1.196-2.014
		C162.562,84.693,162.712,82.943,163.062,80.787z"/>
</g>
</svg>
